<?xml version="1.0" encoding="UTF-8" standalone="no"?>
<!-- Generator: Adobe Illustrator 16.0.0, SVG Export Plug-In . SVG Version: 6.00 Build 0)  -->

<svg
   xmlns:dc="http://purl.org/dc/elements/1.1/"
   xmlns:cc="http://creativecommons.org/ns#"
   xmlns:rdf="http://www.w3.org/1999/02/22-rdf-syntax-ns#"
   xmlns:svg="http://www.w3.org/2000/svg"
   xmlns="http://www.w3.org/2000/svg"
   xmlns:sodipodi="http://sodipodi.sourceforge.net/DTD/sodipodi-0.dtd"
   xmlns:inkscape="http://www.inkscape.org/namespaces/inkscape"
   version="1.1"
   id="Capa_1"
   x="0px"
   y="0px"
   width="512px"
   height="512px"
   viewBox="0 0 533.333 533.333"
   style="enable-background:new 0 0 533.333 533.333;"
   xml:space="preserve"
   inkscape:version="0.91 r"
   sodipodi:docname="google.svg"><metadata
     id="metadata41"><rdf:RDF><cc:Work
         rdf:about=""><dc:format>image/svg+xml</dc:format><dc:type
           rdf:resource="http://purl.org/dc/dcmitype/StillImage" /></cc:Work></rdf:RDF></metadata><defs
     id="defs39" /><sodipodi:namedview
     pagecolor="#ffffff"
     bordercolor="#666666"
     borderopacity="1"
     objecttolerance="10"
     gridtolerance="10"
     guidetolerance="10"
     inkscape:pageopacity="0"
     inkscape:pageshadow="2"
     inkscape:window-width="1366"
     inkscape:window-height="713"
     id="namedview37"
     showgrid="false"
     inkscape:zoom="0.4609375"
     inkscape:cx="-154.0339"
     inkscape:cy="256"
     inkscape:window-x="0"
     inkscape:window-y="-3"
     inkscape:window-maximized="1"
     inkscape:current-layer="Capa_1" /><g
     id="g3"><path
       d="m 291.18,41.358 c 0,0 -104.665,0 -139.552,0 -62.562,0 -121.443,47.399 -121.443,102.303 0,56.107 42.647,101.388 106.296,101.388 4.426,0 8.727,-0.088 12.938,-0.392 -4.13,7.909 -7.084,16.817 -7.084,26.064 0,15.592 8.387,28.233 18.994,38.554 -8.014,0 -15.751,0.232 -24.194,0.232 C 59.645,309.508 0,358.863 0,410.041 c 0,50.406 65.386,81.934 142.882,81.934 88.346,0 137.139,-50.127 137.139,-100.535 0,-40.417 -11.925,-64.621 -48.795,-90.695 -12.612,-8.928 -36.735,-30.644 -36.735,-43.408 0,-14.958 4.269,-22.327 26.786,-39.919 23.079,-18.034 39.413,-43.386 39.413,-72.873 0,-35.107 -15.635,-69.322 -44.985,-80.611 l 44.247,0 31.228,-22.576 z m -48.742,341.384 c 1.107,4.673 1.71,9.483 1.71,14.39 0,40.729 -26.246,72.559 -101.549,72.559 -53.563,0 -92.248,-33.908 -92.248,-74.637 0,-39.918 47.982,-73.147 101.544,-72.568 12.5,0.132 24.15,2.144 34.724,5.567 29.075,20.222 49.935,31.646 55.819,54.689 z M 156.676,230.825 C 120.718,229.75 86.552,190.603 80.346,143.398 74.139,96.176 98.247,60.043 134.194,61.111 c 35.942,1.081 70.124,38.966 76.332,86.176 6.202,47.219 -17.91,84.614 -53.85,83.538 z m 276.657,-89.467 0,-100 -33.333,0 0,100 -100,0 0,33.333 100,0 0,100 33.334,0 0,-100 100,0 0,-33.333 -100.001,0 z"
       id="path5"
       inkscape:connector-curvature="0"
       style="fill:#6a8a8e" /></g></svg>